<?xml version="1.0" encoding="UTF-8"?>
<svg width="60px" height="60px" viewBox="0 0 60 60" version="1.1" xmlns="http://www.w3.org/2000/svg" xmlns:xlink="http://www.w3.org/1999/xlink">
    <!-- Generator: Sketch 53 (72520) - https://sketchapp.com -->
    <title>Acceptance-Property-Icon</title>
    <desc>Created with Sketch.</desc>
    <g id="Mobile" stroke="none" stroke-width="1" fill="none" fill-rule="evenodd">
        <g id="Mobile-&gt;-Product" transform="translate(-178.000000, -1168.000000)">
            <g id="Group-2-Copy" transform="translate(165.000000, 1168.000000)">
                <g id="Acceptance-Property-Icon" transform="translate(12.356581, 0.000000)">
                    <circle id="Oval-Copy-3" fill="#269A65" cx="30.6434187" cy="30" r="30"></circle>
                    <g id="noun_Hand-giving-heart_1286246" transform="translate(13.643419, 15.000000)">
                        <g id="Group"></g>
                    </g>
                    <path d="M48.0219902,34.34925 C47.2362759,33.417625 45.6327045,32.53675 43.4969902,32.873875 L36.0434187,34.0375 C35.1293694,33.1606097 33.8609038,32.7735556 32.6219902,32.9935 L27.6648473,33.7765 C27.0077045,33.02975 24.8827045,30.909125 22.3077045,31.3115 L20.1434187,31.648625 L20.1434187,31.648625 L20.0469902,31.007 C19.9096036,30.1185001 19.0909655,29.5094843 18.2148473,29.644 L15.3577045,30.0935 C14.4837837,30.2347098 13.8857615,31.0650755 14.0184187,31.953125 L15.7398473,43.270375 C15.8754208,44.1599942 16.6953663,44.7699825 17.5719902,44.633375 L20.429133,44.1875 L20.429133,44.1875 C20.8504358,44.1221402 21.2284991,43.8885061 21.479133,43.538625 C21.479133,43.538625 21.5005616,43.502375 21.5112759,43.48425 C23.1398473,43.980875 29.0112759,45.73175 30.6577045,45.73175 C30.7302176,45.7373785 30.8030484,45.7373785 30.8755616,45.73175 C31.6684187,45.6085 35.8755616,43.313875 42.1612759,39.833875 C45.0184187,38.26425 47.6862759,36.781625 48.2827045,36.527875 L48.5112759,36.43 L48.5862759,36.19075 C48.754133,35.650625 48.5434187,34.969125 48.0219902,34.34925 Z M20.6184187,42.893375 C20.5334293,43.0121146 20.4044929,43.0906369 20.2612759,43.110875 L20.2612759,43.110875 L17.404133,43.560375 C17.1124855,43.6013385 16.8429279,43.395733 16.8005616,43.1 L15.0719902,31.786375 C15.0270863,31.4901885 15.2267444,31.2129592 15.5184187,31.1665 L18.3755616,30.717 L18.4577045,30.717 C18.7257822,30.7098792 18.9577462,30.9050495 19.0005616,31.17375 L20.7148473,42.491 C20.736649,42.6328016 20.701953,42.77758 20.6184187,42.893375 L20.6184187,42.893375 Z M41.6505616,38.866 C37.5719902,41.109875 31.4505616,44.502875 30.7112759,44.64425 C29.9719902,44.785625 25.079133,43.437125 21.7827045,42.429375 C21.7827045,42.393125 21.7827045,42.3605 21.7827045,42.32425 L20.3148473,32.72525 L22.479133,32.3845 C24.9005616,32.022 27.0077045,34.66825 27.029133,34.69725 L27.2219902,34.947375 L32.7827045,34.077375 C35.2827045,33.678625 36.3827045,36.10375 36.754133,37.238375 L26.2969902,38.87325 L26.4612759,39.96075 L38.079133,38.14825 L37.9612759,37.58275 C37.7577879,36.6751938 37.3882971,35.814462 36.8719902,35.04525 L43.6577045,33.9795 C45.3648473,33.71125 46.6077045,34.374625 47.204133,35.085125 C47.3650839,35.258195 47.4869571,35.4647763 47.5612759,35.6905 C46.6077045,36.1255 44.3827045,37.354375 41.6505616,38.866 Z" id="Shape" stroke="#FFFFFF" stroke-width="1.3" fill="#FFFFFF" fill-rule="nonzero"></path>
                    <path d="M31.5005616,28.742375 L31.754133,28.880125 L32.0077045,28.742375 C32.3112759,28.57925 39.454133,24.653375 39.454133,19.5385 C39.478897,18.4215405 39.0518992,17.3430192 38.2725531,16.5540376 C37.4932071,15.765056 36.4295176,15.3344596 35.329133,15.3625 C33.8507379,15.3669277 32.487931,16.1747451 31.7577045,17.4795 C31.0243205,16.1691154 29.6532011,15.3604142 28.1684187,15.3625 C27.0686239,15.3364358 26.0062445,15.7684128 25.2283601,16.5579655 C24.4504757,17.3475181 24.0248826,18.4258332 24.0505616,19.542125 C24.0505616,24.653375 31.1898473,28.57925 31.5005616,28.742375 Z M28.1684187,16.45 C29.8500989,16.4519976 31.2128793,17.8352196 31.2148473,19.542125 L32.2862759,19.542125 C32.2882388,17.8366319 33.6488477,16.453993 35.329133,16.45 C36.1454171,16.4213689 36.9367858,16.7379421 37.5143303,17.3241497 C38.0918748,17.9103574 38.4037696,18.7135967 38.3755616,19.542125 C38.3755616,23.507875 32.9898473,26.91175 31.7505616,27.640375 C30.5112759,26.915375 25.1255616,23.515125 25.1255616,19.542125 C25.0974095,18.7142479 25.4088243,17.9116031 25.9855755,17.3255136 C26.5623266,16.7394241 27.3527438,16.4223967 28.1684187,16.45 Z" id="Shape" stroke="#FFFFFF" stroke-width="1.3" fill="#FFFFFF" fill-rule="nonzero"></path>
                </g>
            </g>
        </g>
    </g>
</svg>