<?xml version="1.0" encoding="UTF-8"?>
<svg width="120px" height="38px" viewBox="0 0 120 38" version="1.1" xmlns="http://www.w3.org/2000/svg" xmlns:xlink="http://www.w3.org/1999/xlink">
    <!-- Generator: Sketch 53 (72520) - https://sketchapp.com -->
    <title>Group 2</title>
    <desc>Created with Sketch.</desc>
    <defs>
        <path d="M0.04096,9.32736 C-0.18752,15.40672 3.11808,17.504 3.11808,17.504 L3.11808,17.504 C3.11808,17.504 6.17792,15.5456 5.82208,9.25696 L5.82208,9.25696 C5.63584,5.97312 2.90752,0.08704 2.90752,0.08704 L2.90752,0.08704 C2.90752,0.08704 0.1504,6.40576 0.04096,9.32736 L0.04096,9.32736 Z" id="path-1"></path>
        <path d="M4.72192,3.87968 C-0.14656,7.52768 0.30336,11.41632 0.30336,11.41632 L0.30336,11.41632 C0.30336,11.41632 3.75104,12.56192 8.41408,8.32832 L8.41408,8.32832 C10.84928,6.11712 13.70688,0.29184 13.70688,0.29184 L13.70688,0.29184 C13.70688,0.29184 7.06176,2.12672 4.72192,3.87968 L4.72192,3.87968 Z" id="path-3"></path>
        <path d="M0.06336,2.37824 C0.06336,2.37824 1.36768,5.76896 7.6,6.68224 L7.6,6.68224 C10.8544,7.15904 17.16864,5.66592 17.16864,5.66592 L17.16864,5.66592 C17.16864,5.66592 11.53152,1.69856 8.6912,1.0048 L8.6912,1.0048 C7.48608,0.7104 6.4128,0.59328 5.46944,0.59328 L5.46944,0.59328 C1.78496,0.59264 0.06336,2.37824 0.06336,2.37824 L0.06336,2.37824 Z" id="path-5"></path>
        <path d="M1.98848,9.19232 C3.64864,12.03136 8.75776,16.02944 8.75776,16.02944 L8.75776,16.02944 C8.75776,16.02944 8.33536,9.1488 7.10336,6.49728 L7.10336,6.49728 C4.53952,0.98112 0.64192,0.61824 0.64192,0.61824 L0.64192,0.61824 C0.64192,0.61824 -1.19104,3.75488 1.98848,9.19232 L1.98848,9.19232 Z" id="path-7"></path>
        <path d="M2.19456,5.99488 C0.80512,8.97664 0.4256,15.4528 0.4256,15.4528 L0.4256,15.4528 C0.4256,15.4528 5.84192,11.18976 7.32096,8.66816 L7.32096,8.66816 C10.39808,3.41888 8.47808,0.00832 8.47808,0.00832 L8.47808,0.00832 C8.47808,0.00832 4.85568,0.28608 2.19456,5.99488 L2.19456,5.99488 Z" id="path-9"></path>
        <path d="M8.88256,0.53568 C5.69536,1.34784 0.4416,5.15392 0.4416,5.15392 L0.4416,5.15392 C0.4416,5.15392 7.17056,6.64832 10.05888,6.19648 L10.05888,6.19648 C16.06976,5.25568 17.4944,1.61024 17.4944,1.61024 L17.4944,1.61024 C17.4944,1.61024 16,0.0448 12.51136,0.0448 L12.51136,0.0448 C11.48032,0.04416 10.2752,0.18112 8.88256,0.53568 L8.88256,0.53568 Z" id="path-11"></path>
        <path d="M5.27552,8.4448 C9.80352,12.50752 13.5296,11.30624 13.5296,11.30624 L13.5296,11.30624 C13.5296,11.30624 13.98016,7.7024 8.91712,3.9552 L8.91712,3.9552 C6.27328,1.99872 0.00256,0.33344 0.00256,0.33344 L0.00256,0.33344 C0.00256,0.33344 3.09888,6.4928 5.27552,8.4448 L5.27552,8.4448 Z" id="path-13"></path>
    </defs>
    <g id="Mobile" stroke="none" stroke-width="1" fill="none" fill-rule="evenodd">
        <g id="Mobile-&gt;-Home-&gt;-Default" transform="translate(-95.000000, -16.000000)">
            <g id="Group-2" transform="translate(95.000000, 16.000000)">
                <text id="Daria-Day" font-family="PlayfairDisplay-Regular, Playfair Display" font-size="17.92" font-weight="normal" letter-spacing="-0.0896000028" fill="#19373F">
                    <tspan x="41.6" y="27.32">D</tspan>
                    <tspan x="54.38165" y="27.32" letter-spacing="-0.0846423745">aria Day</tspan>
                </text>
                <g id="Logo" transform="translate(0.000000, -0.000000)">
                    <g id="Group-3" transform="translate(16.640000, 0.633792)">
                        <mask id="mask-2" fill="white">
                            <use xlink:href="#path-1"></use>
                        </mask>
                        <g id="Clip-2"></g>
                        <polygon id="Fill-1" fill="#18373F" mask="url(#mask-2)" points="-4.15168 -3.04096 8.4448 -3.19392 8.73152 20.50976 -3.86432 20.66208"></polygon>
                    </g>
                    <g id="Group-6" transform="translate(21.120000, 7.673792)">
                        <mask id="mask-4" fill="white">
                            <use xlink:href="#path-3"></use>
                        </mask>
                        <g id="Clip-5"></g>
                        <polygon id="Fill-4" fill="#18373F" mask="url(#mask-4)" points="11.695808 -7.16224 19.741248 2.5312 1.499968 17.6704 -6.544832 7.97696"></polygon>
                    </g>
                    <g id="Group-9" transform="translate(21.760000, 18.553792)">
                        <mask id="mask-6" fill="white">
                            <use xlink:href="#path-5"></use>
                        </mask>
                        <g id="Clip-8"></g>
                        <polygon id="Fill-7" fill="#18373F" mask="url(#mask-6)" points="21.64928 -0.621632 19.27168 11.748928 -4.00704 7.274688 -1.63008 -5.095872"></polygon>
                    </g>
                    <g id="Group-12" transform="translate(19.840000, 21.753792)">
                        <mask id="mask-8" fill="white">
                            <use xlink:href="#path-7"></use>
                        </mask>
                        <g id="Clip-11"></g>
                        <polygon id="Fill-10" fill="#18373F" mask="url(#mask-8)" points="18.95424 15.507136 3.4144 25.600576 -20.18112 -10.731584 -4.64128 -20.824384"></polygon>
                    </g>
                    <g id="Group-15" transform="translate(10.240000, 22.393792)">
                        <mask id="mask-10" fill="white">
                            <use xlink:href="#path-9"></use>
                        </mask>
                        <g id="Clip-14"></g>
                        <polygon id="Fill-13" fill="#18373F" mask="url(#mask-10)" points="4.535168 21.368384 -6.635392 15.544384 4.323328 -5.475136 15.493248 0.348224"></polygon>
                    </g>
                    <g id="Group-18" transform="translate(0.000000, 19.193792)">
                        <mask id="mask-12" fill="white">
                            <use xlink:href="#path-11"></use>
                        </mask>
                        <g id="Clip-17"></g>
                        <polygon id="Fill-16" fill="#18373F" mask="url(#mask-12)" points="-1.276672 12.681536 -3.839872 0.348096 19.369088 -4.475584 21.932288 7.857856"></polygon>
                    </g>
                    <g id="Group-21" transform="translate(4.480000, 7.673792)">
                        <mask id="mask-14" fill="white">
                            <use xlink:href="#path-13"></use>
                        </mask>
                        <g id="Clip-20"></g>
                        <polygon id="Fill-19" fill="#18373F" mask="url(#mask-14)" points="-6.915776 3.760896 1.020224 -6.021504 19.429824 8.912256 11.493824 18.694656"></polygon>
                    </g>
                </g>
            </g>
        </g>
    </g>
</svg>