<?xml version="1.0" encoding="UTF-8"?>
<svg width="121px" height="99px" viewBox="0 0 121 99" version="1.1" xmlns="http://www.w3.org/2000/svg" xmlns:xlink="http://www.w3.org/1999/xlink">
    <!-- Generator: Sketch 53 (72520) - https://sketchapp.com -->
    <title>Daria Day Logo</title>
    <desc>Created with Sketch.</desc>
    <defs>
        <polygon id="path-1" points="0 0.72478125 122.357 0.72478125 122.357 37.7247813 0 37.7247813"></polygon>
        <path d="M55.769,-47.435 C55.411,-37.936 60.576,-34.659 60.576,-34.659 L60.576,-34.659 C60.576,-34.659 65.357,-37.719 64.802,-47.545 L64.802,-47.545 C64.511,-52.676 60.247,-61.873 60.247,-61.873 L60.247,-61.873 C60.247,-61.873 55.939,-52 55.769,-47.435 L55.769,-47.435 Z" id="path-3"></path>
        <path d="M70.082,-44.947 C62.475,-39.247 63.179,-33.171 63.179,-33.171 L63.179,-33.171 C63.179,-33.171 68.566,-31.381 75.852,-37.996 L75.852,-37.996 C79.656,-41.451 84.121,-50.553 84.121,-50.553 L84.121,-50.553 C84.121,-50.553 73.738,-47.687 70.082,-44.947 L70.082,-44.947 Z" id="path-5"></path>
        <path d="M63.804,-30.293 C63.804,-30.293 65.842,-24.995 75.579,-23.568 L75.579,-23.568 C80.664,-22.823 90.53,-25.156 90.53,-25.156 L90.53,-25.156 C90.53,-25.156 81.723,-31.355 77.284,-32.44 L77.284,-32.44 C75.401,-32.9 73.724,-33.082 72.25,-33.082 L72.25,-33.082 C66.493,-33.083 63.804,-30.293 63.804,-30.293 L63.804,-30.293 Z" id="path-7"></path>
        <path d="M63.812,-14.647 C66.406,-10.211 74.389,-3.964 74.389,-3.964 L74.389,-3.964 C74.389,-3.964 73.729,-14.714 71.804,-18.857 L71.804,-18.857 C67.797,-27.476 61.707,-28.043 61.707,-28.043 L61.707,-28.043 C61.707,-28.043 58.843,-23.142 63.812,-14.647 L63.812,-14.647 Z" id="path-9"></path>
        <path d="M49.134,-18.642 C46.962,-13.983 46.369,-3.864 46.369,-3.864 L46.369,-3.864 C46.369,-3.864 54.833,-10.526 57.144,-14.465 L57.144,-14.465 C61.952,-22.668 58.951,-27.996 58.951,-27.996 L58.951,-27.996 C58.951,-27.996 53.292,-27.563 49.134,-18.642 L49.134,-18.642 Z" id="path-11"></path>
        <path d="M43.583,-32.172 C38.604,-30.903 30.395,-24.956 30.395,-24.956 L30.395,-24.956 C30.395,-24.956 40.909,-22.621 45.421,-23.327 L45.421,-23.327 C54.814,-24.797 57.039,-30.493 57.039,-30.493 L57.039,-30.493 C57.039,-30.493 54.704,-32.939 49.253,-32.939 L49.253,-32.939 C47.642,-32.94 45.76,-32.726 43.583,-32.172 L43.583,-32.172 Z" id="path-13"></path>
        <path d="M44.947,-37.814 C52.023,-31.466 57.844,-33.343 57.844,-33.343 L57.844,-33.343 C57.844,-33.343 58.549,-38.974 50.638,-44.829 L50.638,-44.829 C46.507,-47.886 36.708,-50.488 36.708,-50.488 L36.708,-50.488 C36.708,-50.488 41.547,-40.864 44.947,-37.814 L44.947,-37.814 Z" id="path-15"></path>
    </defs>
    <g id="Mobile" stroke="none" stroke-width="1" fill="none" fill-rule="evenodd">
        <g id="Mobile-&gt;-Home-&gt;-Default" transform="translate(-100.000000, -3824.000000)">
            <g id="Daria-Day-Logo" transform="translate(99.000000, 3886.000000)">
                <mask id="mask-2" fill="white">
                    <use xlink:href="#path-1"></use>
                </mask>
                <g id="Clip-1"></g>
                <text id="D" mask="url(#mask-2)" font-family="PlayfairDisplay-Regular, Playfair Display" font-size="28" font-weight="normal" fill="#FFFFFF">
                    <tspan x="0" y="30.7247813">D</tspan>
                </text>
                <text id="aria" mask="url(#mask-2)" font-family="PlayfairDisplay-Regular, Playfair Display" font-size="28" font-weight="normal" letter-spacing="-0.004" fill="#FFFFFF">
                    <tspan x="19.964" y="30.7247813">ari</tspan>
                    <tspan x="54.5555156" y="30.7247813">a</tspan>
                </text>
                <text id="-" mask="url(#mask-2)" font-family="PlayfairDisplay-Regular, Playfair Display" font-size="28" font-weight="normal"></text>
                <text id="D" mask="url(#mask-2)" font-family="PlayfairDisplay-Regular, Playfair Display" font-size="28" font-weight="normal" fill="#FFFFFF">
                    <tspan x="74.592" y="30.7247813">D</tspan>
                </text>
                <text id="a" mask="url(#mask-2)" font-family="PlayfairDisplay-Regular, Playfair Display" font-size="28" font-weight="normal" fill="#FFFFFF">
                    <tspan x="94.584" y="30.7247813">a</tspan>
                </text>
                <text id="y" mask="url(#mask-2)" font-family="PlayfairDisplay-Regular, Playfair Display" font-size="28" font-weight="normal" fill="#FFFFFF">
                    <tspan x="108.248" y="30.7247813">y</tspan>
                </text>
                <mask id="mask-4" fill="white">
                    <use xlink:href="#path-3"></use>
                </mask>
                <use id="Clip-4" fill="#FFFFFF" xlink:href="#path-3"></use>
                <polygon id="Fill-3" fill="#FFFFFF" mask="url(#mask-4)" points="44.217 -24.725 74.347 -24.725 74.347 -72 44.217 -72"></polygon>
                <mask id="mask-6" fill="white">
                    <use xlink:href="#path-5"></use>
                </mask>
                <use id="Clip-7" fill="#FFFFFF" xlink:href="#path-5"></use>
                <polygon id="Fill-6" fill="#FFFFFF" mask="url(#mask-6)" points="47.478 -18.399 98.55 -18.399 98.55 -67.2 47.478 -67.2"></polygon>
                <mask id="mask-8" fill="white">
                    <use xlink:href="#path-7"></use>
                </mask>
                <use id="Clip-10" fill="#FFFFFF" xlink:href="#path-7"></use>
                <polygon id="Fill-9" fill="#FFFFFF" mask="url(#mask-8)" points="52.443 -10.652 102.531 -10.652 102.531 -46.972 52.443 -46.972"></polygon>
                <mask id="mask-10" fill="white">
                    <use xlink:href="#path-9"></use>
                </mask>
                <use id="Clip-13" fill="#FFFFFF" xlink:href="#path-9"></use>
                <polygon id="Fill-12" fill="#FFFFFF" mask="url(#mask-10)" points="24.171 15.992 95.32 15.992 95.32 -66.547 24.171 -66.547"></polygon>
                <mask id="mask-12" fill="white">
                    <use xlink:href="#path-11"></use>
                </mask>
                <use id="Clip-16" fill="#FFFFFF" xlink:href="#path-11"></use>
                <polygon id="Fill-15" fill="#FFFFFF" mask="url(#mask-12)" points="30.336 10.379 74.912 10.379 74.912 -41.564 30.336 -41.564"></polygon>
                <mask id="mask-14" fill="white">
                    <use xlink:href="#path-13"></use>
                </mask>
                <use id="Clip-19" fill="#FFFFFF" xlink:href="#path-13"></use>
                <polygon id="Fill-18" fill="#FFFFFF" mask="url(#mask-14)" points="18.705 -8.194 68.974 -8.194 68.974 -45.002 18.705 -45.002"></polygon>
                <mask id="mask-16" fill="white">
                    <use xlink:href="#path-15"></use>
                </mask>
                <use id="Clip-22" fill="#FFFFFF" xlink:href="#path-15"></use>
                <polygon id="Fill-21" fill="#FFFFFF" mask="url(#mask-16)" points="20.898 -16.799 72.063 -16.799 72.063 -65.418 20.898 -65.418"></polygon>
            </g>
        </g>
    </g>
</svg>