<?xml version="1.0" encoding="UTF-8"?>
<svg width="33px" height="33px" viewBox="0 0 33 33" version="1.1" xmlns="http://www.w3.org/2000/svg" xmlns:xlink="http://www.w3.org/1999/xlink">
    <!-- Generator: Sketch 53 (72520) - https://sketchapp.com -->
    <title>facebook copy</title>
    <desc>Created with Sketch.</desc>
    <defs>
        <polygon id="path-1" points="0 0 32.9374743 0 32.9374743 32.9374936 0 32.9374936"></polygon>
    </defs>
    <g id="Mobile" stroke="none" stroke-width="1" fill="none" fill-rule="evenodd">
        <g id="Mobile-&gt;-Home-&gt;-Default" transform="translate(-94.000000, -3285.000000)">
            <g id="Group-8" transform="translate(94.000000, 3285.000000)">
                <g id="facebook">
                    <g id="Group-6">
                        <g id="Group-3">
                            <mask id="mask-2" fill="white">
                                <use xlink:href="#path-1"></use>
                            </mask>
                            <g id="Clip-2"></g>
                            <path d="M28.1137388,4.8238577 C25.1318657,1.84172733 21.0190528,-6.43310547e-06 16.4687243,-6.43310547e-06 C11.9184601,-6.43310547e-06 7.80577578,1.84172733 4.82390273,4.8238577 C1.84202969,7.80598807 -2.57324219e-05,11.9184794 -2.57324219e-05,16.4687436 C-2.57324219e-05,21.0190721 1.84202969,25.1316277 4.82390273,28.1135651 C7.80577578,31.0955668 11.9184601,32.9374936 16.4687243,32.9374936 C21.0190528,32.9374936 25.1318657,31.0955668 28.1137388,28.1135651 C31.0956118,25.1316277 32.9374743,21.0190721 32.9374743,16.4687436 C32.9374743,11.9184794 31.0956118,7.80598807 28.1137388,4.8238577" id="Fill-1" fill="#269A65" mask="url(#mask-2)"></path>
                        </g>
                        <path d="M18.3925989,13.1669311 L18.3925989,11.8444511 C18.3925989,11.2100969 18.8237113,11.0582377 19.1359832,11.0582377 L21.0339388,11.0582377 L21.0339388,8.234375 L18.4204168,8.234375 C15.5135132,8.234375 14.8626395,10.3252916 14.8626395,11.6836404 L14.8626395,13.1668681 L13.175,13.1668681 L13.175,15.159445 L13.175,16.4643373 L14.8806241,16.4643373 L14.8806241,24.703125 L18.2645719,24.703125 L18.2645719,16.4643373 L20.7677928,16.4643373 L20.8782233,15.1686486 L21.08,13.1669311 L18.3925989,13.1669311 Z" id="Fill-4" fill="#FFFFFF"></path>
                    </g>
                </g>
            </g>
        </g>
    </g>
</svg>