<?xml version="1.0" encoding="UTF-8"?>
<svg width="14px" height="14px" viewBox="0 0 14 14" version="1.1" xmlns="http://www.w3.org/2000/svg" xmlns:xlink="http://www.w3.org/1999/xlink">
    <!-- Generator: Sketch 53 (72520) - https://sketchapp.com -->
    <title>Shape</title>
    <desc>Created with Sketch.</desc>
    <g id="Mobile" stroke="none" stroke-width="1" fill="none" fill-rule="evenodd">
        <g id="Mobile-&gt;-Bracelets" transform="translate(-230.000000, -523.000000)" fill="#062B35" fill-rule="nonzero">
            <path d="M243.23913,524.521739 L236.573913,524.521739 C236.269565,523.63913 235.417391,523 234.413043,523 C233.408696,523 232.586957,523.63913 232.252174,524.521739 L230.76087,524.521739 C230.334783,524.521739 230,524.856522 230,525.282609 C230,525.708696 230.334783,526.043478 230.76087,526.043478 L232.252174,526.043478 C232.556522,526.926087 233.408696,527.565217 234.413043,527.565217 C235.417391,527.565217 236.23913,526.926087 236.573913,526.043478 L243.23913,526.043478 C243.665217,526.043478 244,525.708696 244,525.282609 C244,524.856522 243.665217,524.521739 243.23913,524.521739 Z M234.413043,526.043478 C233.986957,526.043478 233.652174,525.708696 233.652174,525.282609 C233.652174,524.856522 233.986957,524.521739 234.413043,524.521739 C234.83913,524.521739 235.173913,524.856522 235.173913,525.282609 C235.173913,525.708696 234.83913,526.043478 234.413043,526.043478 Z M230,530 C230,530.426087 230.334783,530.76087 230.76087,530.76087 L237.426087,530.76087 C237.730435,531.643478 238.582609,532.282609 239.586957,532.282609 C240.591304,532.282609 241.413043,531.643478 241.747826,530.76087 L243.23913,530.76087 C243.665217,530.76087 244,530.426087 244,530 C244,529.573913 243.665217,529.23913 243.23913,529.23913 L241.747826,529.23913 C241.443478,528.356522 240.591304,527.717391 239.586957,527.717391 C238.582609,527.717391 237.76087,528.356522 237.426087,529.23913 L230.76087,529.23913 C230.334783,529.23913 230,529.573913 230,530 Z M238.826087,530 C238.826087,529.573913 239.16087,529.23913 239.586957,529.23913 C240.013043,529.23913 240.347826,529.573913 240.347826,530 C240.347826,530.426087 240.013043,530.76087 239.586957,530.76087 C239.16087,530.76087 238.826087,530.426087 238.826087,530 Z M243.23913,533.956522 L236.573913,533.956522 C236.269565,533.073913 235.417391,532.434783 234.413043,532.434783 C233.408696,532.434783 232.586957,533.073913 232.252174,533.956522 L230.76087,533.956522 C230.334783,533.956522 230,534.291304 230,534.717391 C230,535.143478 230.334783,535.478261 230.76087,535.478261 L232.252174,535.478261 C232.556522,536.36087 233.408696,537 234.413043,537 C235.417391,537 236.23913,536.36087 236.573913,535.478261 L243.23913,535.478261 C243.665217,535.478261 244,535.143478 244,534.717391 C244,534.291304 243.665217,533.956522 243.23913,533.956522 Z M234.413043,535.478261 C233.986957,535.478261 233.652174,535.143478 233.652174,534.717391 C233.652174,534.291304 233.986957,533.956522 234.413043,533.956522 C234.83913,533.956522 235.173913,534.291304 235.173913,534.717391 C235.173913,535.143478 234.83913,535.478261 234.413043,535.478261 Z" id="Shape"></path>
        </g>
    </g>
</svg>