<?xml version="1.0" encoding="UTF-8"?>
<svg width="33px" height="33px" viewBox="0 0 33 33" version="1.1" xmlns="http://www.w3.org/2000/svg" xmlns:xlink="http://www.w3.org/1999/xlink">
    <!-- Generator: Sketch 53 (72520) - https://sketchapp.com -->
    <title>instagram copy</title>
    <desc>Created with Sketch.</desc>
    <g id="Mobile" stroke="none" stroke-width="1" fill="none" fill-rule="evenodd">
        <g id="Mobile-&gt;-Home-&gt;-Default" transform="translate(-143.000000, -3285.000000)">
            <g id="Group-8" transform="translate(94.000000, 3285.000000)">
                <g id="instagram" transform="translate(49.000000, 0.000000)">
                    <g id="iconfinder_2_Media_social_website_instagram_2657553">
                        <path d="M28.1135072,4.82386414 C25.1407692,1.84173376 21.0188212,0 16.4686213,0 C11.9274279,0 7.80612317,1.84173376 4.82405713,4.82386414 C1.84205542,7.80599451 0,11.9184858 0,16.46875 C0,21.0190142 1.84205542,25.1316342 4.82405713,28.1135715 C7.80612317,31.0955732 11.9274279,32.9375 16.4686213,32.9375 C21.0188212,32.9375 25.1407692,31.0955732 28.1135072,28.1135715 C31.0956376,25.1316342 32.9375,21.0190142 32.9375,16.46875 C32.9375,11.9184858 31.0956376,7.80599451 28.1135072,4.82386414 Z" id="Path" fill="#269A65"></path>
                        <path d="M12.0944,16.4642272 C12.0944,14.145321 14.0521888,12.2537439 16.4636792,12.2537439 C18.8849776,12.2537439 20.8427664,14.1452569 20.8427664,16.4642272 C20.8427664,18.7920507 18.8849776,20.6747104 16.4636792,20.6747104 C14.0521221,20.6747104 12.0944,18.7920507 12.0944,16.4642272 L12.0944,16.4642272 Z M20.9848818,8.234375 L11.9525515,8.234375 C9.73001444,8.234375 7.905,9.98019453 7.905,12.126655 L7.905,20.8112299 C7.905,22.947939 9.73008116,24.703125 11.9525515,24.703125 L20.9848818,24.703125 C23.2168932,24.703125 25.0325,22.947939 25.0325,20.8112299 L25.0325,12.126655 C25.0325,9.98019453 23.2168932,8.234375 20.9848818,8.234375 L20.9848818,8.234375 Z M11.9525515,9.2075252 L20.9848818,9.2075252 C22.6590405,9.2075252 24.0206121,10.5167134 24.0206121,12.126655 L24.0206121,20.8112299 C24.0206121,22.4206583 22.6590405,23.7299748 20.9848818,23.7299748 L11.9525515,23.7299748 C10.2783928,23.7299748 8.91688787,22.4206583 8.91688787,20.8112299 L8.91688787,12.126655 C8.91688787,10.5167134 10.2783928,9.2075252 11.9525515,9.2075252 L11.9525515,9.2075252 Z M21.8829439,10.4351097 C21.3911448,10.4351097 20.9943561,10.8169536 20.9943561,11.2897035 C20.9943561,11.7627101 21.3911448,12.1446181 21.8829439,12.1446181 C22.3747431,12.1446181 22.772199,11.7627101 22.772199,11.2897035 C22.772199,10.8169536 22.3747431,10.4351097 21.8829439,10.4351097 L21.8829439,10.4351097 Z M21.9870284,16.4642272 C21.9870284,13.5358592 19.518892,11.1535048 16.4636792,11.1535048 C13.4184745,11.1535048 10.9406636,13.5359233 10.9406636,16.4642272 C10.9406636,19.4015767 13.4185412,21.7750778 16.4636792,21.7750778 C19.518892,21.7750778 21.9870284,19.4015767 21.9870284,16.4642272 L21.9870284,16.4642272 Z" id="Shape" fill="#FFFFFF"></path>
                    </g>
                </g>
            </g>
        </g>
    </g>
</svg>