<?xml version="1.0" encoding="UTF-8"?>
<svg width="60px" height="60px" viewBox="0 0 60 60" version="1.1" xmlns="http://www.w3.org/2000/svg" xmlns:xlink="http://www.w3.org/1999/xlink">
    <!-- Generator: Sketch 53 (72520) - https://sketchapp.com -->
    <title>Love-Property-Icon</title>
    <desc>Created with Sketch.</desc>
    <g id="Mobile" stroke="none" stroke-width="1" fill="none" fill-rule="evenodd">
        <g id="Mobile-&gt;-Product" transform="translate(-68.000000, -1168.000000)">
            <g id="Group-3-Copy-4" transform="translate(68.000000, 1168.000000)">
                <g id="Love-Property-Icon">
                    <circle id="Oval" fill="#269A65" cx="30" cy="30" r="30"></circle>
                    <g id="noun_Heart_682470" transform="translate(18.000000, 22.000000)"></g>
                    <path d="M30.0152566,41.9998032 C30.0050855,42.0000656 29.9951821,42.0000656 29.985011,41.9998032 C29.8693819,41.9998032 29.7524145,41.9659568 29.6507037,41.8951156 C29.3297794,41.6718344 21.7541989,36.3752685 18.9630406,31.9072832 C18.9592934,31.9012486 18.9558138,31.895214 18.9520666,31.8891793 C18.3292218,30.8764115 18,29.7135651 18,28.5247436 C18,24.9270564 20.9860148,22 24.6561684,22 C26.781121,22 28.7543104,22.9896788 30,24.6334587 C31.2456896,22.9896788 33.2191466,22 35.3438316,22 C39.0139852,22 42,24.9270564 42,28.5247436 C42,29.7135651 41.6707782,30.8764115 41.0479334,31.8891793 C41.0444539,31.895214 41.0409743,31.9012486 41.0369594,31.9072832 C38.2460687,36.3752685 30.6704883,41.6718344 30.3492963,41.8951156 C30.2481208,41.9659568 30.1311534,41.9998032 30.0152566,41.9998032 Z M19.9603417,31.3303204 C22.3205674,35.0943534 28.5195726,39.6775213 30.0002677,40.7419771 C31.4809627,39.6775213 37.6799679,35.0943534 40.0401936,31.3305828 C40.0428702,31.3263848 40.0455468,31.3219244 40.0482234,31.317464 C40.5680191,30.4781261 40.8429059,29.5125858 40.8429059,28.5247436 C40.8429059,25.5525586 38.3761515,23.1347722 35.3443669,23.1347722 C33.3262106,23.1347722 31.4734682,24.2157576 30.5090893,25.9560915 C30.4079138,26.138967 30.212522,26.2525754 30.0005353,26.2525754 C29.7885486,26.2525754 29.5931568,26.138967 29.4919814,25.9560915 C28.5276024,24.2157576 26.67486,23.1347722 24.6567038,23.1347722 C21.6246515,23.1347722 19.1581647,25.552821 19.1581647,28.5247436 C19.1581647,29.5125858 19.4327839,30.4781261 19.9528472,31.317464 C19.9549885,31.321662 19.9576651,31.3261224 19.9603417,31.3303204 Z" id="Shape" stroke="#FFFFFF" stroke-width="1.3" fill="#FFFBFB" fill-rule="nonzero"></path>
                </g>
            </g>
        </g>
    </g>
</svg>