<?xml version="1.0" encoding="UTF-8"?>
<svg width="45px" height="44px" viewBox="0 0 45 44" version="1.1" xmlns="http://www.w3.org/2000/svg" xmlns:xlink="http://www.w3.org/1999/xlink">
    <!-- Generator: Sketch 53 (72520) - https://sketchapp.com -->
    <title>Group 2</title>
    <desc>Created with Sketch.</desc>
    <g id="Mobile" stroke="none" stroke-width="1" fill="none" fill-rule="evenodd">
        <g id="Mobile-&gt;-Nav" transform="translate(-9.000000, -585.000000)">
            <g id="Group-3" transform="translate(9.000000, 585.000000)">
                <g id="Group-2">
                    <ellipse id="Oval" fill="#269A65" cx="22.5" cy="22" rx="22.5" ry="22"></ellipse>
                    <g id="noun_stars_1740765" transform="translate(9.000000, 9.777778)" fill="#FFFFFF" fill-rule="nonzero">
                        <path d="M6,16.622055 C6,16.8457812 6.16061733,17.0424194 6.39463896,17.1039525 C11.4584456,18.4432996 12.520991,19.4214745 13.9763584,24.0812657 C14.0435851,24.2962969 14.2568937,24.4444444 14.5,24.4444444 C14.7431063,24.4444444 14.9567782,24.2962969 15.0236416,24.0816001 C16.4793724,19.4214745 17.5422812,18.443634 22.605361,17.1042869 C22.8393827,17.0424194 23,16.8461156 23,16.6223894 C23,16.3986633 22.8393827,16.202025 22.605361,16.140492 C17.5419178,14.8011448 16.4793724,13.8229699 15.0236416,9.16284436 C14.9564149,8.9478131 14.7431063,8.8 14.5,8.8 C14.2568937,8.8 14.0432218,8.94814751 13.9763584,9.16317878 C12.520991,13.8229699 11.4580822,14.8008104 6.39463896,16.140492 C6.16061733,16.2016906 6,16.3983289 6,16.622055 Z M14.5003634,10.9891053 C15.7137147,14.2510259 17.0771451,15.5054307 20.621628,16.6223894 C17.0771451,17.7390137 15.7137147,18.9934185 14.5003634,22.2553392 C13.2870121,18.9934185 11.9239451,17.7390137 8.3790988,16.6223894 C11.9239451,15.5054307 13.2873755,14.2506915 14.5003634,10.9891053 Z" id="Shape"></path>
                        <path d="M26.6349134,4.90409943 C23.5289875,4.03136104 22.8771431,3.39398261 21.984597,0.356984515 C21.9224046,0.145620755 21.7250695,0 21.5001681,0 C21.2752666,0 21.0775954,0.145620755 21.0157391,0.3566558 C20.1228569,3.3936539 19.4706763,4.03103233 16.3650866,4.90377071 C16.1485896,4.96458299 16,5.15786743 16,5.37777778 C16,5.59768813 16.1485896,5.79097256 16.3650866,5.85145613 C19.4706763,6.72419451 20.1228569,7.36190166 21.0157391,10.3988998 C21.0779316,10.6102635 21.2752666,10.7555556 21.5001681,10.7555556 C21.7250695,10.7555556 21.9227407,10.6099348 21.984597,10.398571 C22.8771431,7.36157294 23.5289875,6.72419451 26.6349134,5.85145613 C26.8514104,5.79130128 27,5.59801684 27,5.37810649 C27,5.15819614 26.8514104,4.96491171 26.6349134,4.90409943 Z M21.5001681,8.6757756 C20.8026038,6.89216789 19.9517435,6.06019017 18.127655,5.37810649 C19.9514074,4.69602282 20.8022677,3.8640451 21.5001681,2.0807661 C22.1973962,3.8640451 23.0482565,4.69602282 24.872345,5.37810649 C23.0482565,6.06019017 22.1973962,6.89216789 21.5001681,8.6757756 Z" id="Shape"></path>
                        <path d="M0.913667009,8.7943016 C3.63906982,9.48380756 4.16739039,9.94839447 4.9513008,12.3474193 C5.02176894,12.5629528 5.24536243,12.7111111 5.50019045,12.7111111 C5.75501847,12.7111111 5.97899288,12.5626176 6.04908011,12.3470841 C6.83260961,9.94872967 7.36054927,9.48380756 10.086333,8.7943016 C10.3316383,8.73228964 10.5,8.53552737 10.5,8.31127871 C10.5,8.08703005 10.3316383,7.88993258 10.086333,7.82825582 C7.36093018,7.13874986 6.83260961,6.67382775 6.04908011,4.27513808 C5.97861197,4.05960462 5.75501847,3.91111111 5.50019045,3.91111111 C5.24536243,3.91111111 5.02138803,4.05960462 4.9513008,4.27480288 C4.16739039,6.67382775 3.63945073,7.13841466 0.913667009,7.82792062 C0.668361711,7.88993258 0.5,8.08703005 0.5,8.31127871 C0.5,8.53552737 0.668361711,8.73262484 0.913667009,8.7943016 Z M5.50019045,5.9772826 C6.07269645,7.17897383 6.78651964,7.80747343 8.15207786,8.31127871 C6.78651964,8.81508399 6.07269645,9.44324839 5.50019045,10.6452748 C4.92730355,9.44358359 4.21348036,8.81508399 2.84792214,8.31127871 C4.21348036,7.80747343 4.92730355,7.17897383 5.50019045,5.9772826 Z" id="Shape"></path>
                    </g>
                </g>
            </g>
        </g>
    </g>
</svg>