<?xml version="1.0" encoding="UTF-8"?>
<svg width="19px" height="19px" viewBox="0 0 19 19" version="1.1" xmlns="http://www.w3.org/2000/svg" xmlns:xlink="http://www.w3.org/1999/xlink">
    <!-- Generator: Sketch 53 (72520) - https://sketchapp.com -->
    <title>Outlined-Star-Icon</title>
    <desc>Created with Sketch.</desc>
    <g id="Mobile" stroke="none" stroke-width="1" fill="none" fill-rule="evenodd">
        <g id="Mobile-&gt;-Product" transform="translate(-288.000000, -421.000000)" fill-rule="nonzero" stroke="#269A65" stroke-width="1.7">
            <g id="Group-7-Copy-3" transform="translate(196.000000, 422.000000)">
                <g id="Outlined-Star-Icon" transform="translate(92.945736, 0.000000)">
                    <path d="M8.74036132,0.142086669 L11.1932362,5.34180973 C11.2271995,5.41454655 11.293179,5.46516335 11.3697021,5.47718714 L16.854848,6.31098889 C16.9427302,6.32517397 17.0154605,6.38997694 17.0428325,6.47848394 C17.0702045,6.56699094 17.0475417,6.66407995 16.9842563,6.72942814 L13.0167164,10.7784433 C12.9610924,10.8351219 12.9357812,10.9168605 12.9490712,10.9968932 L13.8872811,16.7135118 C13.9019112,16.8056188 13.8654642,16.8984557 13.7931744,16.9532181 C13.7208846,17.0079805 13.6251995,17.0152389 13.5461139,16.9719595 L8.63742292,14.2736417 C8.56923574,14.2364316 8.48796892,14.2364316 8.41978174,14.2736417 L3.51109081,16.9719595 C3.43200518,17.0152389 3.33632008,17.0079805 3.26403028,16.9532181 C3.19174049,16.8984557 3.1552935,16.8056188 3.16992356,16.7135118 L4.1169568,10.9968932 C4.13024677,10.9168605 4.10493557,10.8351219 4.04931157,10.7784433 L0.0700072942,6.72942814 C0.0067218573,6.66407995 -0.015940984,6.56699094 0.0114310598,6.47848394 C0.0388031036,6.38997694 0.111533333,6.32517397 0.199415563,6.31098889 L5.68456151,5.47718714 C5.76108454,5.46516335 5.82706406,5.41454655 5.86102733,5.34180973 L8.31390225,0.142086669 C8.35255295,0.055407657 8.43570324,-2.73271113e-16 8.52713178,0 C8.61856032,2.73271113e-16 8.70171062,0.055407657 8.74036132,0.142086669 Z" id="Path"></path>
                </g>
            </g>
        </g>
    </g>
</svg>