<?xml version="1.0" encoding="UTF-8"?>
<svg width="33px" height="33px" viewBox="0 0 33 33" version="1.1" xmlns="http://www.w3.org/2000/svg" xmlns:xlink="http://www.w3.org/1999/xlink">
    <!-- Generator: Sketch 53 (72520) - https://sketchapp.com -->
    <title>youtube copy</title>
    <desc>Created with Sketch.</desc>
    <g id="Mobile" stroke="none" stroke-width="1" fill="none" fill-rule="evenodd">
        <g id="Mobile-&gt;-Home-&gt;-Default" transform="translate(-192.000000, -3285.000000)">
            <g id="Group-8" transform="translate(94.000000, 3285.000000)">
                <g id="youtube" transform="translate(98.000000, 0.000000)">
                    <g id="iconfinder_11_Media_social_website_youtube_2657544">
                        <path d="M28.1135072,4.82244885 C25.1316342,1.85048279 21.0191428,0 16.4686213,0 C11.9180355,0 7.80560852,1.85048279 4.82373547,4.82244885 C1.84218408,7.80367859 0,11.9240826 0,16.4734462 C0,21.0130314 1.84218408,25.1340144 4.82373547,28.1147295 C7.80560852,31.0868242 11.9180355,32.9375 16.4686213,32.9375 C21.0191428,32.9375 25.1316342,31.0868242 28.1135072,28.1147295 C31.0949943,25.1340144 32.9375,21.0130957 32.9375,16.4734462 C32.9375,11.9240826 31.0949943,7.80367859 28.1135072,4.82244885 Z" id="Path" fill="#269A65"></path>
                        <path d="M24.8654989,13.6448232 C24.8654989,13.6448232 24.6895911,12.4307191 24.1784368,11.9012597 C23.5290973,11.2075319 22.7954059,11.19832 22.4707034,11.1524537 C20.0755804,10.9791667 16.4831579,10.9791667 16.4831579,10.9791667 L16.4639692,10.9791667 C16.4639692,10.9791667 12.8811083,10.9791667 10.4853304,11.1524537 C10.142487,11.19832 9.41835726,11.2075319 8.76862481,11.9012597 C8.25779797,12.4307835 8.08189017,13.6448232 8.08189017,13.6448232 C8.08189017,13.6448232 7.905,15.0689332 7.905,16.4746837 L7.905,16.6574403 L7.905,17.8165951 C7.905,19.240705 8.08189017,20.646842 8.08189017,20.646842 C8.08189017,20.646842 8.25786346,21.8609462 8.76862481,22.3994887 C9.41835726,23.1022995 10.2727479,23.0751147 10.6625481,23.1479726 C12.0271106,23.2849917 16.4831579,23.3307292 16.4831579,23.3307292 C16.4831579,23.3307292 20.0755804,23.3124986 22.4707034,23.1479726 C22.7954059,23.1022995 23.5290973,23.1022995 24.1784368,22.3994887 C24.6896566,21.8609462 24.8654989,20.646842 24.8654989,20.646842 C24.8654989,20.646842 25.0325,19.2407694 25.0325,17.8165951 L25.0325,16.730427 L25.0325,16.4746837 C25.0325,15.0689332 24.8654989,13.6448232 24.8654989,13.6448232 L24.8654989,13.6448232 Z M19.3329168,16.9679397 L14.7003068,19.4232683 L14.7003068,15.6439368 L14.7003068,14.4937363 L16.7985608,15.616752 L19.3329168,16.9679397 Z" id="Shape" fill="#FFFFFF"></path>
                    </g>
                </g>
            </g>
        </g>
    </g>
</svg>