<?xml version="1.0" encoding="utf-8"?>
<!-- Generator: Adobe Illustrator 23.0.1, SVG Export Plug-In . SVG Version: 6.00 Build 0)  -->
<svg version="1.1" id="Layer_1" xmlns="http://www.w3.org/2000/svg" xmlns:xlink="http://www.w3.org/1999/xlink" x="0px" y="0px"
	 viewBox="500 500 500 500" style="enable-background:new 200 200 500 500;" xml:space="preserve">
<style type="text/css">
	.st0{fill-rule:evenodd;clip-rule:evenodd;fill:#fff;}
	.st1{fill:#fff;}
</style>
<g>
	<path class="st0" d="M226.32,173.38c-0.71,19,9.62,25.55,9.62,25.55s9.56-6.12,8.45-25.77c-0.58-10.26-9.11-28.66-9.11-28.66
		S226.66,164.25,226.32,173.38z"/>
	<path class="st0" d="M254.95,178.35c-15.21,11.4-13.81,23.55-13.81,23.55s10.77,3.58,25.35-9.65c7.61-6.91,16.54-25.11,16.54-25.11
		S262.26,172.88,254.95,178.35z"/>
	<path class="st0" d="M242.39,207.66c0,0,4.08,10.6,23.55,13.45c10.17,1.49,29.9-3.18,29.9-3.18s-17.62-12.4-26.49-14.57
		c-3.77-0.92-7.12-1.29-10.07-1.29C247.77,202.08,242.39,207.66,242.39,207.66z"/>
	<path class="st0" d="M242.41,238.96c5.19,8.87,21.15,21.37,21.15,21.37s-1.32-21.5-5.17-29.79c-8.01-17.24-20.19-18.37-20.19-18.37
		S232.47,221.96,242.41,238.96z"/>
	<path class="st0" d="M213.05,230.96c-4.34,9.32-5.53,29.56-5.53,29.56s16.93-13.32,21.55-21.2c9.62-16.4,3.62-27.06,3.62-27.06
		S221.37,213.12,213.05,230.96z"/>
	<path class="st0" d="M201.95,203.9c-9.96,2.54-26.38,14.43-26.38,14.43s21.03,4.67,30.05,3.26c18.78-2.94,23.24-14.33,23.24-14.33
		s-4.67-4.89-15.57-4.89C210.07,202.37,206.3,202.8,201.95,203.9z"/>
	<path class="st0" d="M204.68,192.62c14.15,12.7,25.79,8.94,25.79,8.94s1.41-11.26-14.41-22.97c-8.26-6.11-27.86-11.32-27.86-11.32
		S197.88,186.52,204.68,192.62z"/>
</g>
<g>
	<path class="st1" d="M146.08,284.5c3.23,3.25,4.84,7.97,4.84,14.16c0,4-0.79,7.5-2.37,10.5c-1.58,3.01-3.86,5.33-6.85,6.96
		c-2.99,1.63-6.55,2.45-10.7,2.45l-3.19-0.05c-2.05-0.07-3.56-0.11-4.51-0.11c-3.01,0-5.28,0.05-6.82,0.17v-1.1
		c1.32-0.07,2.28-0.22,2.89-0.44c0.61-0.22,1.02-0.64,1.24-1.26c0.22-0.62,0.33-1.63,0.33-3.03v-27.28c0-1.39-0.11-2.4-0.33-3.02
		c-0.22-0.62-0.63-1.04-1.24-1.27c-0.6-0.22-1.57-0.37-2.89-0.44v-1.1c1.28,0.11,3.06,0.17,5.33,0.17l4.67-0.05
		c2.49-0.07,4.16-0.11,5-0.11C137.99,279.63,142.85,281.25,146.08,284.5z M127.57,281c-0.57,0.26-0.96,0.72-1.18,1.38
		c-0.22,0.66-0.33,1.65-0.33,2.97v27.5c0,1.32,0.11,2.31,0.33,2.97c0.22,0.66,0.61,1.12,1.18,1.38c0.57,0.26,1.44,0.38,2.61,0.38
		c3.89,0,6.95-0.71,9.19-2.12c2.24-1.41,3.8-3.47,4.7-6.19c0.9-2.71,1.35-6.18,1.35-10.4c0-4.22-0.5-7.65-1.49-10.31
		c-0.99-2.66-2.59-4.65-4.81-5.97c-2.22-1.32-5.22-1.98-8.99-1.98C128.99,280.62,128.14,280.75,127.57,281z"/>
	<path class="st1" d="M157.49,317.22c-1.12-1.16-1.68-2.76-1.68-4.81c0-1.65,0.45-3.01,1.35-4.07c0.9-1.06,1.96-1.91,3.19-2.53
		c1.23-0.62,2.85-1.28,4.87-1.98c2.05-0.7,3.58-1.34,4.57-1.92c0.99-0.59,1.49-1.38,1.49-2.37v-3.41c0-2.13-0.45-3.58-1.35-4.37
		c-0.9-0.79-2.15-1.18-3.77-1.18c-2.57,0-4.38,0.66-5.45,1.98c0.73,0.18,1.35,0.57,1.84,1.15c0.5,0.59,0.74,1.32,0.74,2.2
		c0,0.92-0.29,1.64-0.88,2.17c-0.59,0.53-1.34,0.8-2.25,0.8c-1.03,0-1.8-0.32-2.31-0.96c-0.51-0.64-0.77-1.42-0.77-2.34
		c0-0.88,0.21-1.61,0.63-2.2c0.42-0.59,1.05-1.17,1.9-1.76c0.88-0.62,2-1.14,3.35-1.54c1.36-0.4,2.84-0.6,4.46-0.6
		c2.86,0,5.02,0.68,6.49,2.04c0.92,0.84,1.53,1.86,1.84,3.05c0.31,1.19,0.47,2.76,0.47,4.7v15.29c0,0.92,0.13,1.58,0.39,1.98
		c0.26,0.4,0.7,0.61,1.32,0.61c0.44,0,0.85-0.1,1.24-0.3c0.38-0.2,0.8-0.49,1.24-0.85l0.6,0.93c-0.95,0.73-1.77,1.26-2.45,1.57
		c-0.68,0.31-1.53,0.47-2.56,0.47c-1.76,0-2.99-0.44-3.68-1.32c-0.7-0.88-1.04-2.07-1.04-3.58c-1.1,1.83-2.37,3.11-3.79,3.82
		c-1.43,0.71-3.04,1.07-4.84,1.07C160.32,318.95,158.61,318.38,157.49,317.22z M171.27,312.57v-10.78
		c-0.33,0.51-0.79,0.94-1.38,1.27c-0.59,0.33-1.49,0.77-2.7,1.32c-1.39,0.59-2.52,1.15-3.38,1.68c-0.86,0.53-1.6,1.26-2.23,2.17
		c-0.62,0.92-0.93,2.09-0.93,3.52c0,1.65,0.4,2.9,1.21,3.74c0.81,0.84,1.87,1.26,3.19,1.26
		C167.47,316.75,169.54,315.36,171.27,312.57z"/>
	<path class="st1" d="M203.36,290.74c0.93,0.84,1.4,1.87,1.4,3.08c0,0.95-0.29,1.77-0.85,2.45c-0.57,0.68-1.33,1.02-2.28,1.02
		c-0.81,0-1.49-0.26-2.06-0.77s-0.85-1.21-0.85-2.09c0-1.21,0.62-2.2,1.87-2.97c-0.26-0.37-0.64-0.55-1.15-0.55
		c-1.43,0-2.73,0.56-3.91,1.68c-1.17,1.12-2.09,2.48-2.75,4.1s-0.99,3.13-0.99,4.56v11.66c0,1.69,0.49,2.86,1.46,3.52
		c0.97,0.66,2.43,0.99,4.37,0.99v1.16l-1.32-0.05c-3.74-0.11-6.12-0.17-7.15-0.17c-0.95,0-3.12,0.07-6.49,0.22v-1.16
		c1.54,0,2.62-0.28,3.25-0.85c0.62-0.57,0.93-1.6,0.93-3.11v-17.21c0-1.69-0.31-2.92-0.93-3.68c-0.62-0.77-1.71-1.16-3.25-1.16
		v-1.16c1.17,0.11,2.31,0.17,3.41,0.17c2.31,0,4.22-0.26,5.72-0.77v6.88c0.66-1.83,1.71-3.46,3.16-4.9
		c1.45-1.43,3.05-2.14,4.81-2.14C201.22,289.47,202.42,289.89,203.36,290.74z"/>
	<path class="st1" d="M216.25,313.45c0,1.5,0.31,2.54,0.94,3.11c0.62,0.57,1.71,0.85,3.24,0.85v1.16c-3.37-0.15-5.59-0.22-6.65-0.22
		c-1.06,0-3.28,0.07-6.66,0.22v-1.16c1.54,0,2.62-0.28,3.25-0.85c0.62-0.57,0.93-1.6,0.93-3.11v-17.21c0-1.69-0.31-2.92-0.93-3.68
		c-0.62-0.77-1.71-1.16-3.25-1.16v-1.16c1.17,0.11,2.31,0.17,3.41,0.17c2.31,0,4.22-0.26,5.72-0.77V313.45z M215.87,277.54
		c0.7,0.7,1.04,1.52,1.04,2.48s-0.35,1.78-1.04,2.47c-0.7,0.7-1.52,1.04-2.47,1.04c-0.95,0-1.78-0.35-2.48-1.04
		c-0.7-0.7-1.04-1.52-1.04-2.47s0.35-1.78,1.04-2.48c0.7-0.7,1.52-1.04,2.48-1.04C214.35,276.49,215.17,276.84,215.87,277.54z"/>
	<path class="st1" d="M225.47,317.22c-1.12-1.16-1.68-2.76-1.68-4.81c0-1.65,0.45-3.01,1.35-4.07c0.9-1.06,1.96-1.91,3.19-2.53
		c1.23-0.62,2.85-1.28,4.87-1.98c2.05-0.7,3.58-1.34,4.57-1.92c0.99-0.59,1.49-1.38,1.49-2.37v-3.41c0-2.13-0.45-3.58-1.35-4.37
		c-0.9-0.79-2.15-1.18-3.77-1.18c-2.57,0-4.38,0.66-5.45,1.98c0.73,0.18,1.35,0.57,1.84,1.15c0.5,0.59,0.74,1.32,0.74,2.2
		c0,0.92-0.29,1.64-0.88,2.17c-0.59,0.53-1.34,0.8-2.25,0.8c-1.03,0-1.8-0.32-2.31-0.96c-0.51-0.64-0.77-1.42-0.77-2.34
		c0-0.88,0.21-1.61,0.63-2.2c0.42-0.59,1.05-1.17,1.9-1.76c0.88-0.62,2-1.14,3.35-1.54c1.36-0.4,2.84-0.6,4.46-0.6
		c2.86,0,5.02,0.68,6.49,2.04c0.92,0.84,1.53,1.86,1.84,3.05c0.31,1.19,0.47,2.76,0.47,4.7v15.29c0,0.92,0.13,1.58,0.39,1.98
		c0.26,0.4,0.7,0.61,1.32,0.61c0.44,0,0.85-0.1,1.24-0.3c0.38-0.2,0.8-0.49,1.24-0.85l0.6,0.93c-0.95,0.73-1.77,1.26-2.45,1.57
		c-0.68,0.31-1.53,0.47-2.56,0.47c-1.76,0-2.99-0.44-3.68-1.32c-0.7-0.88-1.04-2.07-1.04-3.58c-1.1,1.83-2.37,3.11-3.79,3.82
		c-1.43,0.71-3.04,1.07-4.84,1.07C228.3,318.95,226.58,318.38,225.47,317.22z M239.25,312.57v-10.78c-0.33,0.51-0.79,0.94-1.38,1.27
		c-0.59,0.33-1.49,0.77-2.7,1.32c-1.39,0.59-2.52,1.15-3.38,1.68c-0.86,0.53-1.6,1.26-2.23,2.17c-0.62,0.92-0.93,2.09-0.93,3.52
		c0,1.65,0.4,2.9,1.21,3.74c0.81,0.84,1.87,1.26,3.19,1.26C235.45,316.75,237.52,315.36,239.25,312.57z"/>
	<path class="st1" d="M293.97,284.5c3.23,3.25,4.84,7.97,4.84,14.16c0,4-0.79,7.5-2.37,10.5c-1.58,3.01-3.86,5.33-6.85,6.96
		c-2.99,1.63-6.55,2.45-10.7,2.45l-3.19-0.05c-2.05-0.07-3.56-0.11-4.51-0.11c-3.01,0-5.28,0.05-6.82,0.17v-1.1
		c1.32-0.07,2.28-0.22,2.89-0.44s1.02-0.64,1.24-1.26c0.22-0.62,0.33-1.63,0.33-3.03v-27.28c0-1.39-0.11-2.4-0.33-3.02
		c-0.22-0.62-0.63-1.04-1.24-1.27c-0.61-0.22-1.57-0.37-2.89-0.44v-1.1c1.28,0.11,3.06,0.17,5.33,0.17l4.67-0.05
		c2.49-0.07,4.16-0.11,5.01-0.11C285.88,279.63,290.74,281.25,293.97,284.5z M275.46,281c-0.57,0.26-0.96,0.72-1.18,1.38
		c-0.22,0.66-0.33,1.65-0.33,2.97v27.5c0,1.32,0.11,2.31,0.33,2.97s0.61,1.12,1.18,1.38c0.57,0.26,1.44,0.38,2.61,0.38
		c3.89,0,6.95-0.71,9.18-2.12c2.24-1.41,3.8-3.47,4.7-6.19c0.9-2.71,1.35-6.18,1.35-10.4c0-4.22-0.5-7.65-1.49-10.31
		c-0.99-2.66-2.59-4.65-4.81-5.97c-2.22-1.32-5.22-1.98-8.99-1.98C276.88,280.62,276.03,280.75,275.46,281z"/>
	<path class="st1" d="M305.38,317.22c-1.12-1.16-1.68-2.76-1.68-4.81c0-1.65,0.45-3.01,1.35-4.07c0.9-1.06,1.96-1.91,3.19-2.53
		c1.23-0.62,2.85-1.28,4.87-1.98c2.05-0.7,3.58-1.34,4.57-1.92c0.99-0.59,1.48-1.38,1.48-2.37v-3.41c0-2.13-0.45-3.58-1.35-4.37
		c-0.9-0.79-2.15-1.18-3.77-1.18c-2.57,0-4.38,0.66-5.44,1.98c0.73,0.18,1.35,0.57,1.84,1.15c0.5,0.59,0.74,1.32,0.74,2.2
		c0,0.92-0.29,1.64-0.88,2.17c-0.59,0.53-1.34,0.8-2.25,0.8c-1.03,0-1.8-0.32-2.31-0.96c-0.51-0.64-0.77-1.42-0.77-2.34
		c0-0.88,0.21-1.61,0.63-2.2c0.42-0.59,1.05-1.17,1.9-1.76c0.88-0.62,2-1.14,3.36-1.54c1.36-0.4,2.84-0.6,4.46-0.6
		c2.86,0,5.02,0.68,6.49,2.04c0.92,0.84,1.53,1.86,1.84,3.05c0.31,1.19,0.47,2.76,0.47,4.7v15.29c0,0.92,0.13,1.58,0.38,1.98
		c0.26,0.4,0.7,0.61,1.32,0.61c0.44,0,0.85-0.1,1.24-0.3c0.38-0.2,0.8-0.49,1.24-0.85l0.61,0.93c-0.95,0.73-1.77,1.26-2.45,1.57
		c-0.68,0.31-1.53,0.47-2.56,0.47c-1.76,0-2.99-0.44-3.69-1.32c-0.7-0.88-1.04-2.07-1.04-3.58c-1.1,1.83-2.37,3.11-3.79,3.82
		s-3.04,1.07-4.84,1.07C308.21,318.95,306.5,318.38,305.38,317.22z M319.16,312.57v-10.78c-0.33,0.51-0.79,0.94-1.38,1.27
		c-0.59,0.33-1.48,0.77-2.7,1.32c-1.39,0.59-2.52,1.15-3.38,1.68c-0.86,0.53-1.6,1.26-2.23,2.17c-0.62,0.92-0.94,2.09-0.94,3.52
		c0,1.65,0.4,2.9,1.21,3.74c0.81,0.84,1.87,1.26,3.19,1.26C315.36,316.75,317.44,315.36,319.16,312.57z"/>
	<path class="st1" d="M355.79,290.24v1.1c-0.73,0.07-1.38,0.4-1.95,0.99c-0.57,0.59-1.11,1.54-1.62,2.86l-9.02,23.65l-1.87,4.78
		c-0.7,1.8-1.48,3.08-2.37,3.85c-0.55,0.51-1.21,0.88-1.98,1.1c-0.77,0.22-1.54,0.33-2.31,0.33c-1.1,0-2-0.29-2.69-0.88
		c-0.7-0.59-1.04-1.39-1.04-2.42c0-0.88,0.26-1.59,0.77-2.12c0.51-0.53,1.23-0.8,2.15-0.8c0.81,0,1.48,0.23,2.01,0.69
		c0.53,0.46,0.8,1.09,0.8,1.9c0,1.1-0.5,1.92-1.49,2.47c0.07,0.04,0.18,0.06,0.33,0.06c2.02,0,3.58-1.43,4.67-4.29l1.93-5
		l-9.96-24.04c-0.62-1.25-1.25-2.07-1.87-2.48c-0.62-0.4-1.25-0.6-1.87-0.6v-1.16c1.58,0.22,3.37,0.33,5.39,0.33
		c1.83,0,4.22-0.11,7.15-0.33v1.16c-1.32,0-2.28,0.11-2.89,0.33c-0.6,0.22-0.91,0.75-0.91,1.59c0,0.77,0.22,1.67,0.66,2.7l6.6,16.39
		l6.1-15.89c0.4-1.1,0.61-1.94,0.61-2.53c0-0.84-0.33-1.47-0.99-1.87c-0.66-0.4-1.71-0.66-3.13-0.77v-1.1
		c1.94,0.11,3.48,0.17,4.62,0.17C353.22,290.41,354.61,290.35,355.79,290.24z"/>
</g>
</svg>
