<?xml version="1.0" encoding="utf-8"?>
<!-- Generator: Adobe Illustrator 23.0.2, SVG Export Plug-In . SVG Version: 6.00 Build 0)  -->
<svg version="1.1" id="Layer_1" xmlns="http://www.w3.org/2000/svg" xmlns:xlink="http://www.w3.org/1999/xlink" x="0px" y="0px"
	 viewBox="0 0 500 500" style="enable-background:new 0 0 500 500;" xml:space="preserve">
<style type="text/css">
	.st0{fill-rule:evenodd;clip-rule:evenodd;fill:#FFFFFF;}
	.st1{fill:#FFFFFF;}
</style>
<g>
	<path class="st0" d="M240.4,178.8c-0.7,19,9.6,25.6,9.6,25.6s9.6-6.1,8.4-25.8c-0.6-10.3-9.1-28.7-9.1-28.7
		S240.7,169.6,240.4,178.8z"/>
	<path class="st0" d="M269,183.7c-15.2,11.4-13.8,23.6-13.8,23.6s10.8,3.6,25.4-9.6c7.6-6.9,16.5-25.1,16.5-25.1
		S276.3,178.3,269,183.7z"/>
	<path class="st0" d="M256.5,213.1c0,0,4.1,10.6,23.6,13.4c10.2,1.5,29.9-3.2,29.9-3.2s-17.6-12.4-26.5-14.6
		c-3.8-0.9-7.1-1.3-10.1-1.3C261.9,207.5,256.5,213.1,256.5,213.1z"/>
	<path class="st0" d="M256.5,244.4c5.2,8.9,21.1,21.4,21.1,21.4s-1.3-21.5-5.2-29.8c-8-17.2-20.2-18.4-20.2-18.4
		S246.6,227.4,256.5,244.4z"/>
	<path class="st0" d="M227.1,236.4c-4.3,9.3-5.5,29.6-5.5,29.6s16.9-13.3,21.6-21.2c9.6-16.4,3.6-27.1,3.6-27.1
		S235.5,218.5,227.1,236.4z"/>
	<path class="st0" d="M216,209.3c-10,2.5-26.4,14.4-26.4,14.4s21,4.7,30.1,3.3c18.8-2.9,23.2-14.3,23.2-14.3s-4.7-4.9-15.6-4.9
		C224.2,207.8,220.4,208.2,216,209.3z"/>
	<path class="st0" d="M218.8,198c14.1,12.7,25.8,8.9,25.8,8.9s1.4-11.3-14.4-23c-8.3-6.1-27.9-11.3-27.9-11.3S212,191.9,218.8,198z"
		/>
</g>
<g>
	<path class="st1" d="M160.2,289.9c3.2,3.2,4.8,8,4.8,14.2c0,4-0.8,7.5-2.4,10.5c-1.6,3-3.9,5.3-6.9,7s-6.6,2.5-10.7,2.5l-3.2,0
		c-2.1-0.1-3.6-0.1-4.5-0.1c-3,0-5.3,0-6.8,0.2v-1.1c1.3-0.1,2.3-0.2,2.9-0.4s1-0.6,1.2-1.3s0.3-1.6,0.3-3v-27.3
		c0-1.4-0.1-2.4-0.3-3s-0.6-1-1.2-1.3c-0.6-0.2-1.6-0.4-2.9-0.4V285c1.3,0.1,3.1,0.2,5.3,0.2l4.7,0c2.5-0.1,4.2-0.1,5-0.1
		C152.1,285,156.9,286.6,160.2,289.9z M141.7,286.4c-0.6,0.3-1,0.7-1.2,1.4s-0.3,1.6-0.3,3v27.5c0,1.3,0.1,2.3,0.3,3
		s0.6,1.1,1.2,1.4c0.6,0.3,1.4,0.4,2.6,0.4c3.9,0,6.9-0.7,9.2-2.1s3.8-3.5,4.7-6.2c0.9-2.7,1.4-6.2,1.4-10.4s-0.5-7.6-1.5-10.3
		s-2.6-4.6-4.8-6s-5.2-2-9-2C143.1,286,142.2,286.1,141.7,286.4z"/>
	<path class="st1" d="M171.6,322.6c-1.1-1.2-1.7-2.8-1.7-4.8c0-1.6,0.4-3,1.4-4.1c0.9-1.1,2-1.9,3.2-2.5s2.9-1.3,4.9-2
		c2.1-0.7,3.6-1.3,4.6-1.9c1-0.6,1.5-1.4,1.5-2.4v-3.4c0-2.1-0.4-3.6-1.4-4.4c-0.9-0.8-2.1-1.2-3.8-1.2c-2.6,0-4.4,0.7-5.4,2
		c0.7,0.2,1.4,0.6,1.8,1.1c0.5,0.6,0.7,1.3,0.7,2.2c0,0.9-0.3,1.6-0.9,2.2c-0.6,0.5-1.3,0.8-2.2,0.8c-1,0-1.8-0.3-2.3-1
		c-0.5-0.6-0.8-1.4-0.8-2.3c0-0.9,0.2-1.6,0.6-2.2c0.4-0.6,1.1-1.2,1.9-1.8c0.9-0.6,2-1.1,3.4-1.5c1.4-0.4,2.8-0.6,4.5-0.6
		c2.9,0,5,0.7,6.5,2c0.9,0.8,1.5,1.9,1.8,3s0.5,2.8,0.5,4.7V320c0,0.9,0.1,1.6,0.4,2c0.3,0.4,0.7,0.6,1.3,0.6c0.4,0,0.9-0.1,1.2-0.3
		c0.4-0.2,0.8-0.5,1.2-0.9l0.6,0.9c-0.9,0.7-1.8,1.3-2.4,1.6s-1.5,0.5-2.6,0.5c-1.8,0-3-0.4-3.7-1.3c-0.7-0.9-1-2.1-1-3.6
		c-1.1,1.8-2.4,3.1-3.8,3.8c-1.4,0.7-3,1.1-4.8,1.1C174.4,324.3,172.7,323.8,171.6,322.6z M185.4,318v-10.8
		c-0.3,0.5-0.8,0.9-1.4,1.3c-0.6,0.3-1.5,0.8-2.7,1.3c-1.4,0.6-2.5,1.1-3.4,1.7s-1.6,1.3-2.2,2.2c-0.6,0.9-0.9,2.1-0.9,3.5
		c0,1.6,0.4,2.9,1.2,3.7c0.8,0.8,1.9,1.3,3.2,1.3C181.6,322.1,183.6,320.8,185.4,318z"/>
	<path class="st1" d="M217.4,296.1c0.9,0.8,1.4,1.9,1.4,3.1c0,1-0.3,1.8-0.9,2.5c-0.6,0.7-1.3,1-2.3,1c-0.8,0-1.5-0.3-2.1-0.8
		s-0.9-1.2-0.9-2.1c0-1.2,0.6-2.2,1.9-3c-0.3-0.4-0.6-0.5-1.1-0.5c-1.4,0-2.7,0.6-3.9,1.7c-1.2,1.1-2.1,2.5-2.8,4.1s-1,3.1-1,4.6
		v11.7c0,1.7,0.5,2.9,1.5,3.5s2.4,1,4.4,1v1.2l-1.3,0c-3.7-0.1-6.1-0.2-7.1-0.2c-0.9,0-3.1,0.1-6.5,0.2v-1.2c1.5,0,2.6-0.3,3.2-0.9
		c0.6-0.6,0.9-1.6,0.9-3.1v-17.2c0-1.7-0.3-2.9-0.9-3.7c-0.6-0.8-1.7-1.2-3.2-1.2v-1.2c1.2,0.1,2.3,0.2,3.4,0.2
		c2.3,0,4.2-0.3,5.7-0.8v6.9c0.7-1.8,1.7-3.5,3.2-4.9c1.4-1.4,3.1-2.1,4.8-2.1C215.3,294.9,216.5,295.3,217.4,296.1z"/>
	<path class="st1" d="M230.3,318.8c0,1.5,0.3,2.5,0.9,3.1c0.6,0.6,1.7,0.9,3.2,0.9v1.2c-3.4-0.1-5.6-0.2-6.6-0.2s-3.3,0.1-6.7,0.2
		v-1.2c1.5,0,2.6-0.3,3.2-0.9c0.6-0.6,0.9-1.6,0.9-3.1v-17.2c0-1.7-0.3-2.9-0.9-3.7c-0.6-0.8-1.7-1.2-3.2-1.2v-1.2
		c1.2,0.1,2.3,0.2,3.4,0.2c2.3,0,4.2-0.3,5.7-0.8L230.3,318.8L230.3,318.8z M230,282.9c0.7,0.7,1,1.5,1,2.5s-0.4,1.8-1,2.5
		c-0.7,0.7-1.5,1-2.5,1s-1.8-0.4-2.5-1c-0.7-0.7-1-1.5-1-2.5s0.4-1.8,1-2.5c0.7-0.7,1.5-1,2.5-1C228.4,281.9,229.3,282.2,230,282.9z
		"/>
	<path class="st1" d="M239.6,322.6c-1.1-1.2-1.7-2.8-1.7-4.8c0-1.6,0.4-3,1.4-4.1c0.9-1.1,2-1.9,3.2-2.5s2.9-1.3,4.9-2
		c2.1-0.7,3.6-1.3,4.6-1.9c1-0.6,1.5-1.4,1.5-2.4v-3.4c0-2.1-0.4-3.6-1.4-4.4c-0.9-0.8-2.1-1.2-3.8-1.2c-2.6,0-4.4,0.7-5.4,2
		c0.7,0.2,1.4,0.6,1.8,1.1c0.5,0.6,0.7,1.3,0.7,2.2c0,0.9-0.3,1.6-0.9,2.2c-0.6,0.5-1.3,0.8-2.2,0.8c-1,0-1.8-0.3-2.3-1
		c-0.5-0.6-0.8-1.4-0.8-2.3c0-0.9,0.2-1.6,0.6-2.2c0.4-0.6,1.1-1.2,1.9-1.8c0.9-0.6,2-1.1,3.4-1.5c1.4-0.4,2.8-0.6,4.5-0.6
		c2.9,0,5,0.7,6.5,2c0.9,0.8,1.5,1.9,1.8,3s0.5,2.8,0.5,4.7V320c0,0.9,0.1,1.6,0.4,2c0.3,0.4,0.7,0.6,1.3,0.6c0.4,0,0.9-0.1,1.2-0.3
		c0.4-0.2,0.8-0.5,1.2-0.9l0.6,0.9c-1,0.7-1.8,1.3-2.5,1.6s-1.5,0.5-2.6,0.5c-1.8,0-3-0.4-3.7-1.3c-0.7-0.9-1-2.1-1-3.6
		c-1.1,1.8-2.4,3.1-3.8,3.8c-1.4,0.7-3,1.1-4.8,1.1C242.4,324.3,240.7,323.8,239.6,322.6z M253.3,318v-10.8
		c-0.3,0.5-0.8,0.9-1.4,1.3c-0.6,0.3-1.5,0.8-2.7,1.3c-1.4,0.6-2.5,1.1-3.4,1.7s-1.6,1.3-2.2,2.2c-0.6,0.9-0.9,2.1-0.9,3.5
		c0,1.6,0.4,2.9,1.2,3.7c0.8,0.8,1.9,1.3,3.2,1.3C249.5,322.1,251.6,320.8,253.3,318z"/>
	<path class="st1" d="M308.1,289.9c3.2,3.2,4.8,8,4.8,14.2c0,4-0.8,7.5-2.4,10.5c-1.6,3-3.9,5.3-6.9,7c-3,1.6-6.5,2.5-10.7,2.5
		l-3.2,0c-2-0.1-3.6-0.1-4.5-0.1c-3,0-5.3,0-6.8,0.2v-1.1c1.3-0.1,2.3-0.2,2.9-0.4s1-0.6,1.2-1.3s0.3-1.6,0.3-3v-27.3
		c0-1.4-0.1-2.4-0.3-3s-0.6-1-1.2-1.3c-0.6-0.2-1.6-0.4-2.9-0.4V285c1.3,0.1,3.1,0.2,5.3,0.2l4.7,0c2.5-0.1,4.2-0.1,5-0.1
		C300,285,304.8,286.6,308.1,289.9z M289.5,286.4c-0.6,0.3-1,0.7-1.2,1.4s-0.3,1.6-0.3,3v27.5c0,1.3,0.1,2.3,0.3,3s0.6,1.1,1.2,1.4
		s1.4,0.4,2.6,0.4c3.9,0,7-0.7,9.2-2.1c2.2-1.4,3.8-3.5,4.7-6.2c0.9-2.7,1.4-6.2,1.4-10.4s-0.5-7.6-1.5-10.3s-2.6-4.6-4.8-6
		s-5.2-2-9-2C291,286,290.1,286.1,289.5,286.4z"/>
	<path class="st1" d="M319.5,322.6c-1.1-1.2-1.7-2.8-1.7-4.8c0-1.6,0.5-3,1.4-4.1s2-1.9,3.2-2.5s2.9-1.3,4.9-2
		c2-0.7,3.6-1.3,4.6-1.9c1-0.6,1.5-1.4,1.5-2.4v-3.4c0-2.1-0.5-3.6-1.4-4.4s-2.1-1.2-3.8-1.2c-2.6,0-4.4,0.7-5.4,2
		c0.7,0.2,1.4,0.6,1.8,1.1c0.5,0.6,0.7,1.3,0.7,2.2c0,0.9-0.3,1.6-0.9,2.2s-1.3,0.8-2.2,0.8c-1,0-1.8-0.3-2.3-1
		c-0.5-0.6-0.8-1.4-0.8-2.3c0-0.9,0.2-1.6,0.6-2.2c0.4-0.6,1-1.2,1.9-1.8c0.9-0.6,2-1.1,3.4-1.5s2.8-0.6,4.5-0.6c2.9,0,5,0.7,6.5,2
		c0.9,0.8,1.5,1.9,1.8,3s0.5,2.8,0.5,4.7V320c0,0.9,0.1,1.6,0.4,2c0.3,0.4,0.7,0.6,1.3,0.6c0.4,0,0.9-0.1,1.2-0.3
		c0.4-0.2,0.8-0.5,1.2-0.9l0.6,0.9c-1,0.7-1.8,1.3-2.5,1.6c-0.7,0.3-1.5,0.5-2.6,0.5c-1.8,0-3-0.4-3.7-1.3s-1-2.1-1-3.6
		c-1.1,1.8-2.4,3.1-3.8,3.8s-3,1.1-4.8,1.1C322.3,324.3,320.6,323.8,319.5,322.6z M333.2,318v-10.8c-0.3,0.5-0.8,0.9-1.4,1.3
		s-1.5,0.8-2.7,1.3c-1.4,0.6-2.5,1.1-3.4,1.7c-0.9,0.5-1.6,1.3-2.2,2.2c-0.6,0.9-0.9,2.1-0.9,3.5c0,1.6,0.4,2.9,1.2,3.7
		s1.9,1.3,3.2,1.3C329.4,322.1,331.5,320.8,333.2,318z"/>
	<path class="st1" d="M369.9,295.6v1.1c-0.7,0.1-1.4,0.4-2,1s-1.1,1.5-1.6,2.9l-9,23.6l-1.9,4.8c-0.7,1.8-1.5,3.1-2.4,3.9
		c-0.5,0.5-1.2,0.9-2,1.1c-0.8,0.2-1.5,0.3-2.3,0.3c-1.1,0-2-0.3-2.7-0.9c-0.7-0.6-1-1.4-1-2.4c0-0.9,0.3-1.6,0.8-2.1
		c0.5-0.5,1.2-0.8,2.1-0.8c0.8,0,1.5,0.2,2,0.7s0.8,1.1,0.8,1.9c0,1.1-0.5,1.9-1.5,2.5c0.1,0,0.2,0.1,0.3,0.1c2,0,3.6-1.4,4.7-4.3
		l1.9-5l-10-24c-0.6-1.2-1.2-2.1-1.9-2.5c-0.6-0.4-1.2-0.6-1.9-0.6v-1.2c1.6,0.2,3.4,0.3,5.4,0.3c1.8,0,4.2-0.1,7.1-0.3v1.2
		c-1.3,0-2.3,0.1-2.9,0.3c-0.6,0.2-0.9,0.8-0.9,1.6c0,0.8,0.2,1.7,0.7,2.7l6.6,16.4l6.1-15.9c0.4-1.1,0.6-1.9,0.6-2.5
		c0-0.8-0.3-1.5-1-1.9s-1.7-0.7-3.1-0.8v-1.1c1.9,0.1,3.5,0.2,4.6,0.2C367.3,295.8,368.7,295.7,369.9,295.6z"/>
</g>
</svg>
